<svg width="16" height="16" viewBox="0 0 16 16" fill="none" xmlns="http://www.w3.org/2000/svg">
<path fill-rule="evenodd" clip-rule="evenodd" d="M4.26701 1.45496C4.91008 1.40364 5.52057 1.15077 6.01158 0.732335C7.15738 -0.244112 8.84262 -0.244112 9.98842 0.732335C10.4794 1.15077 11.0899 1.40364 11.733 1.45496C13.2336 1.57471 14.4253 2.76636 14.545 4.26701C14.5964 4.91008 14.8492 5.52057 15.2677 6.01158C16.2441 7.15738 16.2441 8.84262 15.2677 9.98842C14.8492 10.4794 14.5964 11.0899 14.545 11.733C14.4253 13.2336 13.2336 14.4253 11.733 14.545C11.0899 14.5964 10.4794 14.8492 9.98842 15.2677C8.84262 16.2441 7.15738 16.2441 6.01158 15.2677C5.52057 14.8492 4.91008 14.5964 4.26701 14.545C2.76636 14.4253 1.57471 13.2336 1.45496 11.733C1.40364 11.0899 1.15077 10.4794 0.732335 9.98842C-0.244112 8.84262 -0.244112 7.15738 0.732335 6.01158C1.15077 5.52057 1.40364 4.91008 1.45496 4.26701C1.57471 2.76636 2.76636 1.57471 4.26701 1.45496ZM11.7071 6.70711C12.0976 6.31658 12.0976 5.68342 11.7071 5.29289C11.3166 4.90237 10.6834 4.90237 10.2929 5.29289L7 8.58579L5.70711 7.29289C5.31658 6.90237 4.68342 6.90237 4.29289 7.29289C3.90237 7.68342 3.90237 8.31658 4.29289 8.70711L6.29289 10.7071C6.68342 11.0976 7.31658 11.0976 7.70711 10.7071L11.7071 6.70711Z" fill="#E84139"/>
<path fill-rule="evenodd" clip-rule="evenodd" d="M4.26701 1.45496C4.91008 1.40364 5.52057 1.15077 6.01158 0.732335C7.15738 -0.244112 8.84262 -0.244112 9.98842 0.732335C10.4794 1.15077 11.0899 1.40364 11.733 1.45496C13.2336 1.57471 14.4253 2.76636 14.545 4.26701C14.5964 4.91008 14.8492 5.52057 15.2677 6.01158C16.2441 7.15738 16.2441 8.84262 15.2677 9.98842C14.8492 10.4794 14.5964 11.0899 14.545 11.733C14.4253 13.2336 13.2336 14.4253 11.733 14.545C11.0899 14.5964 10.4794 14.8492 9.98842 15.2677C8.84262 16.2441 7.15738 16.2441 6.01158 15.2677C5.52057 14.8492 4.91008 14.5964 4.26701 14.545C2.76636 14.4253 1.57471 13.2336 1.45496 11.733C1.40364 11.0899 1.15077 10.4794 0.732335 9.98842C-0.244112 8.84262 -0.244112 7.15738 0.732335 6.01158C1.15077 5.52057 1.40364 4.91008 1.45496 4.26701C1.57471 2.76636 2.76636 1.57471 4.26701 1.45496ZM11.7071 6.70711C12.0976 6.31658 12.0976 5.68342 11.7071 5.29289C11.3166 4.90237 10.6834 4.90237 10.2929 5.29289L7 8.58579L5.70711 7.29289C5.31658 6.90237 4.68342 6.90237 4.29289 7.29289C3.90237 7.68342 3.90237 8.31658 4.29289 8.70711L6.29289 10.7071C6.68342 11.0976 7.31658 11.0976 7.70711 10.7071L11.7071 6.70711Z" fill="url(#paint0_linear_19_293)" fill-opacity="0.4"/>
<defs>
<linearGradient id="paint0_linear_19_293" x1="8" y1="0" x2="8" y2="16" gradientUnits="userSpaceOnUse">
<stop offset="0.3" stop-opacity="0"/>
<stop offset="1" stop-color="#660C11"/>
</linearGradient>
</defs>
</svg>
