<svg width="62" height="62" viewBox="0 0 62 62" fill="none" xmlns="http://www.w3.org/2000/svg">
<path fill-rule="evenodd" clip-rule="evenodd" d="M9.50736 14.674C7.75 16.4313 7.75 19.2598 7.75 24.9166V37.0833C7.75 42.7401 7.75 45.5686 9.50736 47.3259C11.2647 49.0833 14.0931 49.0833 19.75 49.0833H42.25C47.9069 49.0833 50.7353 49.0833 52.4926 47.3259C54.25 45.5686 54.25 42.7401 54.25 37.0833V24.9166C54.25 19.2598 54.25 16.4313 52.4926 14.674C50.7353 12.9166 47.9069 12.9166 42.25 12.9166H19.75C14.0931 12.9166 11.2647 12.9166 9.50736 14.674ZM16.3321 22.0019C15.6428 21.5424 14.7115 21.7286 14.2519 22.4179C13.7924 23.1072 13.9787 24.0385 14.6679 24.498L29.6132 34.4616C30.453 35.0214 31.547 35.0214 32.3867 34.4616L47.3321 24.498C48.0213 24.0385 48.2076 23.1072 47.7481 22.4179C47.2885 21.7286 46.3572 21.5424 45.6679 22.0019L31 31.7805L16.3321 22.0019Z" fill="#E84139"/>
<path fill-rule="evenodd" clip-rule="evenodd" d="M9.50736 14.674C7.75 16.4313 7.75 19.2598 7.75 24.9166V37.0833C7.75 42.7401 7.75 45.5686 9.50736 47.3259C11.2647 49.0833 14.0931 49.0833 19.75 49.0833H42.25C47.9069 49.0833 50.7353 49.0833 52.4926 47.3259C54.25 45.5686 54.25 42.7401 54.25 37.0833V24.9166C54.25 19.2598 54.25 16.4313 52.4926 14.674C50.7353 12.9166 47.9069 12.9166 42.25 12.9166H19.75C14.0931 12.9166 11.2647 12.9166 9.50736 14.674ZM16.3321 22.0019C15.6428 21.5424 14.7115 21.7286 14.2519 22.4179C13.7924 23.1072 13.9787 24.0385 14.6679 24.498L29.6132 34.4616C30.453 35.0214 31.547 35.0214 32.3867 34.4616L47.3321 24.498C48.0213 24.0385 48.2076 23.1072 47.7481 22.4179C47.2885 21.7286 46.3572 21.5424 45.6679 22.0019L31 31.7805L16.3321 22.0019Z" fill="url(#paint0_linear_63_723)" fill-opacity="0.4"/>
<defs>
<linearGradient id="paint0_linear_63_723" x1="31" y1="12.9166" x2="31" y2="49.0833" gradientUnits="userSpaceOnUse">
<stop offset="0.3" stop-opacity="0"/>
<stop offset="1" stop-color="#660C11"/>
</linearGradient>
</defs>
</svg>
