<svg width="62" height="62" viewBox="0 0 62 62" fill="none" xmlns="http://www.w3.org/2000/svg">
<path fill-rule="evenodd" clip-rule="evenodd" d="M31.8961 51.2284C35.5442 49.3571 49.0832 41.5289 49.0832 28.4167C49.0832 18.4296 40.987 10.3334 30.9998 10.3334C21.0127 10.3334 12.9165 18.4296 12.9165 28.4167C12.9165 41.5289 26.4555 49.3571 30.1036 51.2284C30.6739 51.5209 31.3258 51.5209 31.8961 51.2284ZM30.9998 36.1667C35.28 36.1667 38.7498 32.6969 38.7498 28.4167C38.7498 24.1365 35.28 20.6667 30.9998 20.6667C26.7196 20.6667 23.2498 24.1365 23.2498 28.4167C23.2498 32.6969 26.7196 36.1667 30.9998 36.1667Z" fill="#E84139"/>
<path fill-rule="evenodd" clip-rule="evenodd" d="M31.8961 51.2284C35.5442 49.3571 49.0832 41.5289 49.0832 28.4167C49.0832 18.4296 40.987 10.3334 30.9998 10.3334C21.0127 10.3334 12.9165 18.4296 12.9165 28.4167C12.9165 41.5289 26.4555 49.3571 30.1036 51.2284C30.6739 51.5209 31.3258 51.5209 31.8961 51.2284ZM30.9998 36.1667C35.28 36.1667 38.7498 32.6969 38.7498 28.4167C38.7498 24.1365 35.28 20.6667 30.9998 20.6667C26.7196 20.6667 23.2498 24.1365 23.2498 28.4167C23.2498 32.6969 26.7196 36.1667 30.9998 36.1667Z" fill="url(#paint0_linear_63_711)" fill-opacity="0.4"/>
<defs>
<linearGradient id="paint0_linear_63_711" x1="30.9998" y1="10.3334" x2="30.9998" y2="51.4478" gradientUnits="userSpaceOnUse">
<stop offset="0.3" stop-opacity="0"/>
<stop offset="1" stop-color="#660C11"/>
</linearGradient>
</defs>
</svg>
