<svg width="102" height="103" viewBox="0 0 102 103" fill="none" xmlns="http://www.w3.org/2000/svg">
<g clip-path="url(#clip0_63_340)">
<rect width="100" height="100" transform="matrix(4.37114e-08 -1 -1 -4.37114e-08 101 101.645)" fill="#F5F4F4"/>
<rect x="1" y="1" width="36" height="36" transform="matrix(4.37114e-08 -1 -1 -4.37114e-08 103 103.645)" fill="white" stroke="#3D3D3D" stroke-width="2"/>
<rect x="1" y="1" width="36" height="36" transform="matrix(4.37114e-08 -1 -1 -4.37114e-08 37 37.645)" fill="white" stroke="#3D3D3D" stroke-width="2"/>
<line y1="-1" x2="44.5533" y2="-1" transform="matrix(-0.707107 -0.707107 -0.707107 0.707107 66.252 68.397)" stroke="#3D3D3D" stroke-width="2"/>
</g>
<rect width="100" height="100" transform="matrix(4.37114e-08 -1 -1 -4.37114e-08 101 101.645)" stroke="#3D3D3D" stroke-width="2"/>
<defs>
<clipPath id="clip0_63_340">
<rect width="100" height="100" transform="matrix(4.37114e-08 -1 -1 -4.37114e-08 101 101.645)" fill="white"/>
</clipPath>
</defs>
</svg>
