<svg width="33" height="34" viewBox="0 0 33 34" fill="none" xmlns="http://www.w3.org/2000/svg">
<path d="M0.200195 18.0499C0.200195 16.3103 1.6105 14.9 3.3502 14.9C5.08989 14.9 6.5002 16.3103 6.5002 18.0499V30.65C6.5002 32.3896 5.08989 33.7999 3.3502 33.7999C1.6105 33.7999 0.200195 32.3896 0.200195 30.65V18.0499Z" fill="#E84139"/>
<path d="M0.200195 18.0499C0.200195 16.3103 1.6105 14.9 3.3502 14.9C5.08989 14.9 6.5002 16.3103 6.5002 18.0499V30.65C6.5002 32.3896 5.08989 33.7999 3.3502 33.7999C1.6105 33.7999 0.200195 32.3896 0.200195 30.65V18.0499Z" fill="url(#paint0_linear_151_414)" fill-opacity="0.4"/>
<path d="M8.60019 17.7V29.1042C8.60019 30.695 9.49901 32.1494 10.9219 32.8608L11.0266 32.9131C12.193 33.4963 13.4791 33.7999 14.7832 33.7999H26.157C28.1591 33.7999 29.8828 32.3868 30.2755 30.4236L32.7955 17.8236C33.3152 15.2247 31.3274 12.8 28.677 12.8H21.2002V4.39995C21.2002 2.08036 19.3198 0.199951 17.0002 0.199951C15.8404 0.199951 14.9002 1.14015 14.9002 2.29995V3.69995C14.9002 5.51746 14.3107 7.28594 13.2202 8.73995L10.2802 12.66C9.18969 14.114 8.60019 15.8824 8.60019 17.7Z" fill="#E84139"/>
<path d="M8.60019 17.7V29.1042C8.60019 30.695 9.49901 32.1494 10.9219 32.8608L11.0266 32.9131C12.193 33.4963 13.4791 33.7999 14.7832 33.7999H26.157C28.1591 33.7999 29.8828 32.3868 30.2755 30.4236L32.7955 17.8236C33.3152 15.2247 31.3274 12.8 28.677 12.8H21.2002V4.39995C21.2002 2.08036 19.3198 0.199951 17.0002 0.199951C15.8404 0.199951 14.9002 1.14015 14.9002 2.29995V3.69995C14.9002 5.51746 14.3107 7.28594 13.2202 8.73995L10.2802 12.66C9.18969 14.114 8.60019 15.8824 8.60019 17.7Z" fill="url(#paint1_linear_151_414)" fill-opacity="0.4"/>
<defs>
<linearGradient id="paint0_linear_151_414" x1="16.5393" y1="0.199951" x2="16.5393" y2="33.7999" gradientUnits="userSpaceOnUse">
<stop offset="0.3" stop-opacity="0"/>
<stop offset="1" stop-color="#660C11"/>
</linearGradient>
<linearGradient id="paint1_linear_151_414" x1="16.5393" y1="0.199951" x2="16.5393" y2="33.7999" gradientUnits="userSpaceOnUse">
<stop offset="0.3" stop-opacity="0"/>
<stop offset="1" stop-color="#660C11"/>
</linearGradient>
</defs>
</svg>
