<svg width="16" height="15" viewBox="0 0 16 15" fill="none" xmlns="http://www.w3.org/2000/svg">
<path d="M7.04893 0.927067C7.34828 0.00575608 8.65169 0.00575656 8.95104 0.927067L10.0206 4.21886C10.1545 4.63089 10.5384 4.90985 10.9717 4.90985H14.4329C15.4016 4.90985 15.8044 6.14946 15.0207 6.71886L12.2205 8.75331C11.87 9.00795 11.7233 9.45932 11.8572 9.87134L12.9268 13.1631C13.2261 14.0844 12.1717 14.8506 11.3879 14.2812L8.58777 12.2467C8.23728 11.9921 7.76269 11.9921 7.4122 12.2467L4.61203 14.2812C3.82832 14.8506 2.77384 14.0844 3.07319 13.1631L4.14276 9.87134C4.27663 9.45932 4.12997 9.00795 3.77949 8.75331L0.979317 6.71886C0.195603 6.14946 0.598379 4.90985 1.5671 4.90985H5.0283C5.46153 4.90985 5.84548 4.63089 5.97936 4.21886L7.04893 0.927067Z" fill="#E3A154"/>
</svg>
